<svg width="15" height="15" viewBox="0 0 15 15" fill="none" xmlns="http://www.w3.org/2000/svg">
<path d="M7.50317 4.1311C5.63989 4.1311 4.13696 5.63403 4.13696 7.49731C4.13696 9.3606 5.63989 10.8635 7.50317 10.8635C9.36646 10.8635 10.8694 9.3606 10.8694 7.49731C10.8694 5.63403 9.36646 4.1311 7.50317 4.1311ZM7.50317 9.68579C6.29907 9.68579 5.3147 8.70435 5.3147 7.49731C5.3147 6.29028 6.29614 5.30884 7.50317 5.30884C8.71021 5.30884 9.69165 6.29028 9.69165 7.49731C9.69165 8.70435 8.70728 9.68579 7.50317 9.68579ZM11.7922 3.99341C11.7922 4.42993 11.4407 4.77856 11.0071 4.77856C10.5706 4.77856 10.2219 4.427 10.2219 3.99341C10.2219 3.55981 10.5735 3.20825 11.0071 3.20825C11.4407 3.20825 11.7922 3.55981 11.7922 3.99341ZM14.0217 4.79028C13.9719 3.73853 13.7317 2.80688 12.9612 2.03931C12.1936 1.27173 11.262 1.03149 10.2102 0.97876C9.12622 0.917236 5.8772 0.917236 4.79321 0.97876C3.74438 1.02856 2.81274 1.2688 2.04224 2.03638C1.27173 2.80396 1.03442 3.7356 0.981689 4.78735C0.920166 5.87134 0.920166 9.12036 0.981689 10.2043C1.03149 11.2561 1.27173 12.1877 2.04224 12.9553C2.81274 13.7229 3.74146 13.9631 4.79321 14.0159C5.8772 14.0774 9.12622 14.0774 10.2102 14.0159C11.262 13.9661 12.1936 13.7258 12.9612 12.9553C13.7288 12.1877 13.969 11.2561 14.0217 10.2043C14.0833 9.12036 14.0833 5.87427 14.0217 4.79028ZM12.6213 11.3674C12.3928 11.9417 11.9504 12.384 11.3733 12.6155C10.509 12.9583 8.45825 12.8792 7.50317 12.8792C6.5481 12.8792 4.49438 12.9553 3.63306 12.6155C3.05884 12.387 2.61646 11.9446 2.38501 11.3674C2.04224 10.5032 2.12134 8.45239 2.12134 7.49731C2.12134 6.54224 2.04517 4.48853 2.38501 3.6272C2.61353 3.05298 3.05591 2.6106 3.63306 2.37915C4.49731 2.03638 6.5481 2.11548 7.50317 2.11548C8.45825 2.11548 10.512 2.03931 11.3733 2.37915C11.9475 2.60767 12.3899 3.05005 12.6213 3.6272C12.9641 4.49146 12.885 6.54224 12.885 7.49731C12.885 8.45239 12.9641 10.5061 12.6213 11.3674Z" fill="#32353C"/>
</svg>
