<svg width="15" height="15" viewBox="0 0 15 15" fill="none" xmlns="http://www.w3.org/2000/svg">
<path d="M14.0626 6.14971C12.7728 6.15279 11.5146 5.75055 10.4658 4.9998V10.2357C10.4655 11.2055 10.1691 12.152 9.61624 12.9488C9.06341 13.7455 8.28052 14.3545 7.37225 14.6943C6.46397 15.0341 5.47361 15.0885 4.53358 14.8502C3.59355 14.612 2.74867 14.0924 2.1119 13.361C1.47513 12.6296 1.07683 11.7212 0.970256 10.7573C0.863682 9.79347 1.05391 8.82003 1.51552 7.96718C1.97712 7.11434 2.68809 6.42274 3.55336 5.98487C4.41863 5.54701 5.39696 5.38374 6.35752 5.51689V8.15039C5.91797 8.01213 5.44596 8.01629 5.00891 8.16229C4.57186 8.30829 4.19212 8.58865 3.92392 8.96334C3.65571 9.33803 3.51276 9.78789 3.51547 10.2487C3.51819 10.7094 3.66643 11.1576 3.93903 11.5291C4.21163 11.9006 4.59465 12.1765 5.03338 12.3173C5.47212 12.4581 5.94415 12.4567 6.38204 12.3133C6.81994 12.1699 7.20132 11.8918 7.47172 11.5187C7.74212 11.1455 7.88771 10.6965 7.8877 10.2357V0H10.4658C10.464 0.217717 10.4823 0.435137 10.5203 0.649512C10.6099 1.12807 10.7962 1.58332 11.0677 1.98742C11.3393 2.39152 11.6905 2.73597 12.0997 2.99971C12.682 3.38469 13.3646 3.58989 14.0626 3.58975V6.14971Z" fill="#32353C"/>
</svg>
