<svg width="15" height="15" viewBox="0 0 15 15" fill="none" xmlns="http://www.w3.org/2000/svg">
<path d="M12.0967 2.84473C10.8691 1.61426 9.23438 0.9375 7.49707 0.9375C3.91113 0.9375 0.993164 3.85547 0.993164 7.44141C0.993164 8.58691 1.29199 9.70605 1.86035 10.6934L0.9375 14.0625L4.38574 13.1572C5.33496 13.6758 6.4043 13.9482 7.49414 13.9482H7.49707C11.0801 13.9482 14.0625 11.0303 14.0625 7.44434C14.0625 5.70703 13.3242 4.0752 12.0967 2.84473ZM7.49707 12.8525C6.52441 12.8525 5.57227 12.5918 4.74316 12.0996L4.54688 11.9824L2.50195 12.5186L3.04688 10.5234L2.91797 10.3184C2.37598 9.45703 2.0918 8.46387 2.0918 7.44141C2.0918 4.46191 4.51758 2.03613 7.5 2.03613C8.94434 2.03613 10.3008 2.59863 11.3203 3.62109C12.3398 4.64355 12.9668 6 12.9639 7.44434C12.9639 10.4268 10.4766 12.8525 7.49707 12.8525ZM10.4619 8.80371C10.3008 8.72168 9.50098 8.3291 9.35156 8.27637C9.20215 8.2207 9.09375 8.19434 8.98535 8.3584C8.87695 8.52246 8.56641 8.88574 8.46973 8.99707C8.37598 9.10547 8.2793 9.12012 8.11816 9.03809C7.16309 8.56055 6.53613 8.18555 5.90625 7.10449C5.73926 6.81738 6.07324 6.83789 6.38379 6.2168C6.43652 6.1084 6.41016 6.01465 6.36914 5.93262C6.32812 5.85059 6.00293 5.05078 5.86816 4.72559C5.73633 4.40918 5.60156 4.45312 5.50195 4.44727C5.4082 4.44141 5.2998 4.44141 5.19141 4.44141C5.08301 4.44141 4.90723 4.48242 4.75781 4.64355C4.6084 4.80762 4.18945 5.2002 4.18945 6C4.18945 6.7998 4.77246 7.57324 4.85156 7.68164C4.93359 7.79004 5.99707 9.43066 7.62891 10.1367C8.66016 10.582 9.06445 10.6201 9.58008 10.5439C9.89355 10.4971 10.541 10.1514 10.6758 9.77051C10.8105 9.38965 10.8105 9.06445 10.7695 8.99707C10.7314 8.92383 10.623 8.88281 10.4619 8.80371Z" fill="#32353C"/>
</svg>
