<svg width="15" height="15" viewBox="0 0 15 15" fill="none" xmlns="http://www.w3.org/2000/svg">
<path d="M14.3137 4.06466C14.1502 3.44878 13.6682 2.96372 13.0563 2.79911C11.9472 2.5 7.49979 2.5 7.49979 2.5C7.49979 2.5 3.0524 2.5 1.94326 2.79911C1.33135 2.96375 0.849427 3.44878 0.685859 4.06466C0.388672 5.18099 0.388672 7.5101 0.388672 7.5101C0.388672 7.5101 0.388672 9.83922 0.685859 10.9555C0.849427 11.5714 1.33135 12.0363 1.94326 12.2009C3.0524 12.5 7.49979 12.5 7.49979 12.5C7.49979 12.5 11.9472 12.5 13.0563 12.2009C13.6682 12.0363 14.1502 11.5714 14.3137 10.9555C14.6109 9.83922 14.6109 7.5101 14.6109 7.5101C14.6109 7.5101 14.6109 5.18099 14.3137 4.06466ZM6.04523 9.62477V5.39544L9.76239 7.51016L6.04523 9.62477Z" fill="#32353C"/>
</svg>
